<svg xmlns="http://www.w3.org/2000/svg" viewBox="0 0 36 29" width="36" height="29">
	<style>
		tspan { white-space:pre }
		.shp0 { fill: #e9e9e9 } 
	</style>
	<path id="“" class="shp0" d="M8.84 28.99C12.87 28.99 16.27 25.9 16.27 21.63C16.27 17.03 12.87 14.28 8.84 14.28C7.2 14.28 5.67 14.9 4.54 15.79C4.31 15.12 4.2 14.39 4.2 13.38C4.2 8.89 8.28 4.06 13.04 2.1L11.96 0.02C3.75 3.84 0.01 10.29 0.01 17.76C0.01 19.61 0.35 22.81 1.99 25.34C3.41 27.53 5.45 28.99 8.84 28.99ZM28.56 28.99C32.64 28.99 35.98 25.9 35.98 21.63C35.98 17.03 32.64 14.28 28.56 14.28C26.92 14.28 25.44 14.9 24.25 15.79C24.03 15.12 23.91 14.39 23.91 13.38C23.91 8.89 27.99 4.06 32.75 2.1L31.68 0.02C23.46 3.84 19.72 10.29 19.72 17.76C19.72 19.61 20.06 22.81 21.71 25.34C23.12 27.53 25.22 28.99 28.56 28.99Z" />
</svg>